<?xml version="1.0" encoding="utf-8"?>
<!-- Generator: Adobe Illustrator 15.1.0, SVG Export Plug-In . SVG Version: 6.00 Build 0)  -->
<!DOCTYPE svg PUBLIC "-//W3C//DTD SVG 1.1//EN" "http://www.w3.org/Graphics/SVG/1.1/DTD/svg11.dtd">
<svg version="1.1" id="Calque_1" xmlns="http://www.w3.org/2000/svg" xmlns:xlink="http://www.w3.org/1999/xlink" x="0px" y="0px"
	 width="396px" height="774px" viewBox="0 0 396 774" enable-background="new 0 0 396 774" xml:space="preserve">
<path fill="#AEE4ED" d="M395.664,748.416c0,13.883-88.647,25.143-198,25.143s-198-11.26-198-25.143
	c0-13.891,88.647-25.148,198-25.148S395.664,734.525,395.664,748.416z"/>
<path fill="#9E472D" d="M113.001,751.893h95.333c0,0-0.667-24.334-11-34.334h-26.667c0,0-3.667,12.334-29,17.166
	C141.667,734.725,115.668,733.893,113.001,751.893z"/>
<path fill="#9E472D" d="M218,751.893h95.333c0,0-0.667-24.334-11-34.334h-26.667c0,0-3.667,12.334-29,17.166
	C246.666,734.725,220.667,733.893,218,751.893z"/>
<path fill="#201251" d="M188.334,322.892l-26.333,219.001l4.666,177h34.334l7.333-89.668c0,0,4.666-49.334-4.667-83l34-139
	l5.334,0.666l3,139.668l29.665,170l27.908,1.334v-95c0,0-7.24-59.666-15.24-80l11-143.002c0,0,9.667-29.666-6-73.999
	C293.334,326.892,234.667,341.558,188.334,322.892z"/>
<path fill="#9E472D" d="M189.001,310.559c0,0,37.667,13.333,103,4c0,0-0.994,5.261,1.333,12.333c0,0-56.041,14.417-105-4
	L189.001,310.559z"/>
<polygon fill="#0FCAD7" points="34.334,121.892 109.001,114.892 138.85,182.301 127.63,217.88 111.375,220.506 83.001,210.559 
	58.109,172.465 "/>
<path fill="#96C4EA" d="M177.001,208.559c0,0,5,63.666,11.333,79.333l0.667,22.667c0,0,44.667,15,103,4c0,0,5.813-52,11.573-82
	h10.76c0,0,12.333,0.666,9.333-15.667l-20.093-83.333c0,0-2.241-13.334-24.907-17.667l-25.333-5.333h-39.333l-45.334,16.333
	c0,0-14.333,6.333-20.333,25.333l-25.333,80.333l-36.334-37.667l-12.666,26c0,0,38.666,56,52.333,65c0,0,7.666,7.667,17.333-9
	c0,0,8.668-11.333,18.334-34.667C162.001,242.225,170.668,218.226,177.001,208.559z"/>
<path fill="#6AA5CC" d="M256.667,170.559h3c0,0,7.333,82.333-6,116h-4C249.667,286.559,262,208.892,256.667,170.559z"/>
<path fill="#6AA5CC" d="M292.001,314.559l11.573-82c0,0,1.24-18.667,0-33.333h-2.907l-0.5,24c0,0-4.166,28-5.833,38l-4,23.833
	c0,0-4.185,23.578-2.759,30.289L292.001,314.559z"/>
<path fill="#6AA5CC" d="M214.001,110.559c0,0,8.999-12.667,39.666-11.333l-0.333,11.333H214.001z"/>
<path fill="#6AA5CC" d="M182.834,199.225c0,0-10.334,3-20.667,26.333c0,0-7.5,24.333-20.5,45c0,0-7.483,12.61-12.658,16.805
	c0,0,8.017,6.665,20.849-20.171c0,0,9.951-19.831,13.304-28.123c0.08-0.199,0.156-0.392,0.229-0.577
	C166.486,230.588,176.001,207.725,182.834,199.225z"/>
<path fill="#FD9E71" d="M78.309,212.05c0,0-21.641-24.158-24.308-39.492c0,0,0-5.334,6.333,2.333l7.667,11.333c0,0-1.666-8,3-10.667
	c0,0,4.999,2.687,5.666,15.843c0,0,6.793,1.389,8.563,6.439L78.309,212.05z"/>
<path fill="#FD9E71" d="M214.001,110.559V90.392l-8.334,3.5c0,0-11,6-11.833-8c0,0-4.667-40.5,1.5-48.667c0,0,7.5,13,8.5,20.5
	c0,0,3.833-16.5,15-10.833c0,0,11.501,7.833-1.833,19l8.333,15.167c0,0,3.667,7.666,13.167,7.833c0,0,11.5,0.667,16.5-4.667
	l-1.334,15C253.667,99.225,229.335,96.726,214.001,110.559z"/>
<path fill="#201251" d="M190.501,24.059c0,0,3.667-29.667,30-22.5l31.166,10.691c0,0,19.834,8.142,15.667,29.309l-12.333,42.667
	c0,0-16.25,13.008-28.792-1.746l-9.208-16.587c0,0,11.837-8.017,3.585-17.425c0,0-9.013-10.75-16.549,8.504
	c0,0-4.036-13.246-8.703-19.746C195.334,37.225,188.669,31.226,190.501,24.059z"/>
</svg>
