<?xml version="1.0" encoding="utf-8"?>
<!-- Generator: Adobe Illustrator 15.1.0, SVG Export Plug-In . SVG Version: 6.00 Build 0)  -->
<!DOCTYPE svg PUBLIC "-//W3C//DTD SVG 1.1//EN" "http://www.w3.org/Graphics/SVG/1.1/DTD/svg11.dtd">
<svg version="1.1" id="Calque_1" xmlns="http://www.w3.org/2000/svg" xmlns:xlink="http://www.w3.org/1999/xlink" x="0px" y="0px"
	 width="394px" height="572px" viewBox="0 0 394 572" enable-background="new 0 0 394 572" xml:space="preserve">
<ellipse fill="#AEE4ED" cx="197.5" cy="545.777" rx="196.75" ry="25.75"/>
<path fill="#D5D5D5" d="M50.975,282.662c0,0-33.725,53.115,0.025,73.365c0,0,25.5,14.5,97.25,9.5l-37.75,133.5H133
	c0,0,50.75-119.5,57.25-128c0,0,17.25,83,49,131.25l19.25-1.75c0,0-18.25-97.5-19.5-119c0,0-3.75-34-5-46c0,0-34-23.25-84.5-42.25
	l-7.974-4.125C141.526,289.152,92.975,295.662,50.975,282.662z"/>
<path d="M177.75,181.027c0,0-16.246-48.722-48.498-48.361c0,0-7.522-4.584-51.502-1.806c0,0-24.75-0.333-36.25,28.167
	c0,0-16.5,49-18.5,69.25c0,0,16.5,19.75,37.25,32.25l-11,26.25c0,0,48.75,7.5,60.5,7.25l4.25,3c0,0,0-15.25,13.75-17.25l12,10.75
	c0,0,2.75-0.25,3-6.25l5.5-55l9.955-29L172,244.527l11.25,14.75l4.25-11.75l22.75,1.125
	C210.25,248.652,187.75,204.777,177.75,181.027z M59.25,216.277l4-12.5l7.25,22.75L59.25,216.277z"/>
<path fill="#E67750" d="M94,129.948l-0.438-33.239c0,0,6.125,24.436,35.938,32.605c0.534,0.146,0.908,0.857,1.458,0.992
	l-2.458,3.721h1.75c0,0,7,42.25-23,22.75c0,0-10.75-8.256-15.5-26.792L94,129.948z"/>
<path fill="#FD9E71" d="M93.336,95.527c0,0,4.667,32.667,42.667,35.333c0,0,24.667-16,22-66c0,0,0.37-4.73-7.253-8.583
	c0,0-20.149-0.267-24.583-3.083s-3.833-3.333-3.833-3.333s-19.736-17.232-27.367,5.55c0,0-3.281,5.731-1.281,15.065
	c0,0-29.061-10.699-16.35,16.932C77.336,87.408,81,94.402,93.336,95.527z"/>
<path fill="#201251" d="M88.003,27.527c0,0-11.334-33.333-36.667-26c0,0-18.667,4.667-16.667,50.667c0,0,7.333,64.667-24,42
	c0,0-1.333,20,18.667,24.667c0,0,24,8.667,29.333-18l5.333-45.333c0,0,0.667-16,14-14.667c0,0-4.667,9.333-2,30
	c0,0,8-4.667,18,1.333c0,0-4-23.333,11.333-27.333c0,0,8-3.333,16,6c0,0,2,5.333,28,6c0,0,6.667,1.333,8.667,8
	c0,0,16.667-34.667-36-45.333C122.003,19.527,102.67,18.861,88.003,27.527z"/>
<polygon fill="#30C5CC" points="167.334,304.881 105.75,305.777 160.25,325.027 "/>
<path fill="#FD9E71" d="M127.75,279.777l32.5,30.25c0,0-15.25,5.25-25,0l-21.25-13C114,297.027,114,282.277,127.75,279.777z"/>
<polygon fill="#0B9B9B" points="105.75,310.277 105.75,305.777 160.25,325.027 187.5,247.527 288,252.777 258.25,328.027 
	155.5,330.777 "/>
<ellipse transform="matrix(0.9509 0.3096 -0.3096 0.9509 100.236 -55.9738)" fill="#30C5CC" cx="226.457" cy="287.795" rx="8.97" ry="11.805"/>
<path fill="#201251" d="M110.5,499.027c0,0-12.25,10.75-10,29.75l73.25,2c0,0,5.75-1,5-6.25c0,0,0.5-4-10.75-6.5c0,0-29-10.75-35-19
	H110.5z"/>
<path fill="#201251" d="M239.25,502.277c0,0-8.5,10-7,25.75l74.25,2.75c0,0,4.75-0.5,4.75-6c0,0-0.75-5-11.25-8.25
	c0,0-28.25-10.75-34.25-17.5L239.25,502.277z"/>
</svg>
